<svg width="10" height="10" viewBox="0 0 10 10" fill="none" xmlns="http://www.w3.org/2000/svg">
    <g clip-path="url(#clip0)">
        <path d="M4.99999 3.63672C4.24771 3.63672 3.63635 4.24807 3.63635 5.00035C3.63635 5.75263 4.24771 6.36399 4.99999 6.36399C5.75226 6.36399 6.36362 5.75263 6.36362 5.00035C6.36362 4.24807 5.75224 3.63672 4.99999 3.63672Z" fill="black"/>
        <path d="M5.00001 1.58984C2.72727 1.58984 0.786371 3.00347 0 4.99894C0.786371 6.99439 2.72727 8.40803 5.00001 8.40803C7.275 8.40803 9.21365 6.99439 10 4.99894C9.21365 3.00347 7.275 1.58984 5.00001 1.58984ZM5.00001 7.27165C3.74546 7.27165 2.72727 6.25346 2.72727 4.99892C2.72727 3.74437 3.74546 2.7262 5.00001 2.7262C6.25456 2.7262 7.27275 3.74439 7.27275 4.99894C7.27275 6.25348 6.25456 7.27165 5.00001 7.27165Z" fill="black"/>
    </g>
    <defs>
        <clipPath id="clip0">
            <path d="M0 0H10V10H0V0Z" fill="white"/>
        </clipPath>
    </defs>
</svg>
